<svg width="18" height="28" viewBox="0 0 18 28" fill="none" xmlns="http://www.w3.org/2000/svg">
<path d="M17.5375 10.8C17.4228 10.6304 17.2683 10.4915 17.0874 10.3956C16.9064 10.2997 16.7048 10.2497 16.5 10.25H12.75V7.75H15.5C15.8315 7.75 16.1495 7.6183 16.3839 7.38388C16.6183 7.14946 16.75 6.83152 16.75 6.5V1.5C16.75 1.16848 16.6183 0.850537 16.3839 0.616116C16.1495 0.381696 15.8315 0.25 15.5 0.25H11.5C9.57718 0.25 7.73311 1.01384 6.37348 2.37348C5.01384 3.73311 4.25 5.57718 4.25 7.5V10.25H1.5C1.16848 10.25 0.850537 10.3817 0.616117 10.6161C0.381696 10.8505 0.25 11.1685 0.25 11.5V16.5C0.25 16.8315 0.381696 17.1495 0.616117 17.3839C0.850537 17.6183 1.16848 17.75 1.5 17.75H4.25V26.5C4.25 26.8315 4.3817 27.1495 4.61612 27.3839C4.85054 27.6183 5.16848 27.75 5.5 27.75H11.5C11.8315 27.75 12.1495 27.6183 12.3839 27.3839C12.6183 27.1495 12.75 26.8315 12.75 26.5V17.75H14.5C14.7503 17.7502 14.995 17.6753 15.2023 17.5349C15.4095 17.3945 15.5699 17.1951 15.6625 16.9625L17.6625 11.9625C17.738 11.7732 17.7661 11.5684 17.7443 11.3657C17.7225 11.1631 17.6515 10.9689 17.5375 10.8V10.8ZM13.65 15.25H11.5C11.1685 15.25 10.8505 15.3817 10.6161 15.6161C10.3817 15.8505 10.25 16.1685 10.25 16.5V25.25H6.75V16.5C6.75 16.1685 6.6183 15.8505 6.38388 15.6161C6.14946 15.3817 5.83152 15.25 5.5 15.25H2.75V12.75H5.5C5.83152 12.75 6.14946 12.6183 6.38388 12.3839C6.6183 12.1495 6.75 11.8315 6.75 11.5V7.5C6.7533 6.24124 7.2548 5.03497 8.14489 4.14489C9.03497 3.2548 10.2412 2.7533 11.5 2.75H14.25V5.25H13.25C12.8268 5.18834 12.3954 5.21422 11.9826 5.32602C11.5697 5.43783 11.1843 5.63319 10.85 5.9C10.6471 6.11237 10.4894 6.36362 10.3863 6.63861C10.2832 6.91359 10.2368 7.20661 10.25 7.5V11.5C10.25 11.8315 10.3817 12.1495 10.6161 12.3839C10.8505 12.6183 11.1685 12.75 11.5 12.75H14.65L13.65 15.25Z" fill="#D6AD5A"/>
</svg>
