<svg width="26" height="26" viewBox="0 0 26 26" fill="none" xmlns="http://www.w3.org/2000/svg">
<path d="M13 6.75C11.7639 6.75 10.5555 7.11656 9.52769 7.80331C8.49988 8.49007 7.6988 9.46619 7.22575 10.6082C6.75271 11.7503 6.62893 13.0069 6.87009 14.2193C7.11125 15.4317 7.7065 16.5453 8.58058 17.4194C9.45466 18.2935 10.5683 18.8888 11.7807 19.1299C12.9931 19.3711 14.2497 19.2473 15.3918 18.7742C16.5338 18.3012 17.5099 17.5001 18.1967 16.4723C18.8834 15.4445 19.25 14.2361 19.25 13C19.25 11.3424 18.5915 9.75269 17.4194 8.58058C16.2473 7.40848 14.6576 6.75 13 6.75V6.75ZM13 16.75C12.2583 16.75 11.5333 16.5301 10.9166 16.118C10.2999 15.706 9.81928 15.1203 9.53545 14.4351C9.25162 13.7498 9.17736 12.9958 9.32205 12.2684C9.46675 11.541 9.8239 10.8728 10.3483 10.3483C10.8728 9.8239 11.541 9.46675 12.2684 9.32205C12.9958 9.17736 13.7498 9.25162 14.4351 9.53545C15.1203 9.81928 15.706 10.2999 16.118 10.9166C16.5301 11.5333 16.75 12.2583 16.75 13C16.75 13.9946 16.3549 14.9484 15.6517 15.6517C14.9484 16.3549 13.9946 16.75 13 16.75ZM19.25 5.5C19.0028 5.5 18.7611 5.57331 18.5555 5.71066C18.35 5.84801 18.1898 6.04324 18.0952 6.27165C18.0005 6.50005 17.9758 6.75139 18.024 6.99386C18.0722 7.23634 18.1913 7.45907 18.3661 7.63388C18.5409 7.8087 18.7637 7.92775 19.0061 7.97598C19.2486 8.02421 19.4999 7.99946 19.7284 7.90485C19.9568 7.81024 20.152 7.65002 20.2893 7.44446C20.4267 7.2389 20.5 6.99723 20.5 6.75C20.5 6.41848 20.3683 6.10054 20.1339 5.86612C19.8995 5.6317 19.5815 5.5 19.25 5.5ZM25.425 8.3C25.4043 7.23178 25.2014 6.17493 24.825 5.175C24.476 4.26508 23.9395 3.43874 23.2504 2.74962C22.5613 2.06051 21.7349 1.52402 20.825 1.175C19.8251 0.798624 18.7682 0.59571 17.7 0.575C16.4875 0.5 16.0875 0.5 13 0.5C9.9125 0.5 9.5125 0.5 8.3 0.575C7.23178 0.59571 6.17493 0.798624 5.175 1.175C4.26508 1.52402 3.43874 2.06051 2.74962 2.74962C2.06051 3.43874 1.52402 4.26508 1.175 5.175C0.798624 6.17493 0.59571 7.23178 0.575 8.3C0.5 9.525 0.5 9.925 0.5 13C0.5 16.075 0.5 16.475 0.575 17.7C0.59571 18.7682 0.798624 19.8251 1.175 20.825C1.52402 21.7349 2.06051 22.5613 2.74962 23.2504C3.43874 23.9395 4.26508 24.476 5.175 24.825C6.17493 25.2014 7.23178 25.4043 8.3 25.425C9.55 25.425 9.9125 25.5 13 25.5C16.0875 25.5 16.4875 25.5 17.7 25.425C18.7682 25.4043 19.8251 25.2014 20.825 24.825C21.7349 24.476 22.5613 23.9395 23.2504 23.2504C23.9395 22.5613 24.476 21.7349 24.825 20.825C25.2014 19.8251 25.4043 18.7682 25.425 17.7C25.425 16.45 25.5 16.075 25.5 13C25.5 9.925 25.5 9.525 25.425 8.3ZM22.925 17.5875C22.9031 18.3808 22.7554 19.1655 22.4875 19.9125C22.266 20.5029 21.9159 21.0367 21.4625 21.475C21.0268 21.9286 20.492 22.2751 19.9 22.4875C19.1513 22.7664 18.3613 22.9185 17.5625 22.9375C16.3875 22.9375 16.025 23 12.9875 23C9.95 23 9.6 23 8.425 23C7.62752 22.9794 6.83844 22.8317 6.0875 22.5625C5.49707 22.341 4.96334 21.9909 4.525 21.5375C4.07144 21.1018 3.7249 20.567 3.5125 19.975C3.23476 19.2303 3.08269 18.4446 3.0625 17.65C3.0625 16.4 3.0625 16.0875 3.0625 13.0625C3.0625 10.0375 3.0625 9.675 3.0625 8.475C3.08405 7.67651 3.23605 6.88692 3.5125 6.1375C3.7282 5.55079 4.07442 5.02078 4.525 4.5875C4.96072 4.13394 5.49551 3.7874 6.0875 3.575C6.83624 3.29612 7.62624 3.14403 8.425 3.125C9.6 3 9.9625 3 13 3C16.0375 3 16.4 3 17.575 3C18.3777 3.02041 19.1716 3.17243 19.925 3.45C20.5117 3.6657 21.0417 4.01192 21.475 4.4625C21.9286 4.89822 22.2751 5.43301 22.4875 6.025C22.7935 6.7857 22.9668 7.59323 23 8.4125C23 9.6625 23.0625 9.975 23.0625 13C23.0625 16.025 23 16.3875 23 17.5875H22.925Z" fill="#D6AD5A"/>
</svg>
