<svg width="150" height="51" viewBox="0 0 150 51" fill="none" xmlns="http://www.w3.org/2000/svg">
<path d="M110.353 0.996582C110.403 1.12679 110.446 1.258 110.503 1.38518C110.683 1.79093 110.868 2.19466 111.05 2.5994C111.138 2.7942 111.223 2.99001 111.31 3.18482C111.632 3.90447 111.946 4.62816 112.281 5.34277C112.42 5.64052 112.568 5.93424 112.699 6.23502C113.056 7.0546 113.418 7.87317 113.778 8.69073C113.858 8.87039 113.941 9.04904 114.022 9.2287C114.339 9.94129 114.653 10.6539 114.972 11.3665C115.191 11.854 115.413 12.3395 115.636 12.826C115.742 13.0571 115.722 13.0894 115.431 13.0904C114.485 13.0914 113.54 13.0894 112.593 13.0874C112.548 13.0874 112.502 13.0844 112.456 13.0813C112.364 13.0733 112.303 13.0299 112.274 12.9542C112.248 12.8855 112.218 12.8169 112.202 12.7462C112.077 12.185 111.954 11.6228 111.83 11.0617C111.793 10.8951 111.758 10.7286 111.715 10.564C111.673 10.4005 111.607 10.3541 111.41 10.34C111.345 10.3349 111.281 10.337 111.217 10.337C109.656 10.3359 108.095 10.3359 106.535 10.3359C106.068 10.3359 106.093 10.342 105.967 10.7397C105.861 11.0798 105.794 11.4301 105.703 11.7742C105.654 11.962 105.586 12.1457 105.533 12.3334C105.479 12.5282 105.435 12.726 105.383 12.9208C105.351 13.044 105.32 13.0692 105.183 13.0803C105.119 13.0854 105.055 13.0844 104.99 13.0844C103.356 13.0864 101.721 13.0844 100.088 13.0914C99.8167 13.0924 99.5595 13.0561 99.3057 12.9824C99.2552 12.9673 99.2081 12.94 99.1622 12.9148C98.8625 12.7503 98.6283 12.5222 98.3906 12.2991C98.3355 12.2476 98.2965 12.18 98.2597 12.1164C97.9807 11.6178 97.7029 11.1172 97.4273 10.6175C97.1345 10.0866 96.7947 9.57995 96.3802 9.11566C96.1598 8.86837 95.929 8.62815 95.6247 8.45152C95.5179 8.38995 95.4307 8.30415 95.3285 8.23552C95.2355 8.17294 95.1505 8.19817 95.1195 8.2981C95.1023 8.35159 95.0965 8.40912 95.0931 8.46464C95.0885 8.54538 95.0897 8.62613 95.0897 8.70688C95.0897 10.0059 95.0897 11.3039 95.0897 12.6029C95.0897 12.6756 95.0908 12.7482 95.0885 12.8209C95.0793 13.0531 95.0437 13.0894 94.7808 13.0904C94.0092 13.0934 93.2388 13.0914 92.4672 13.0904C92.4213 13.0904 92.3754 13.0874 92.3306 13.0803C92.2479 13.0692 92.1997 13.0228 92.1871 12.9521C92.1779 12.9047 92.1768 12.8562 92.1756 12.8078C92.1733 12.7271 92.1745 12.6463 92.1745 12.5656C92.1745 8.8391 92.1745 5.11264 92.1745 1.38618C92.1745 1.25699 92.1722 1.1278 92.171 0.998601C92.9242 0.998601 93.6774 0.998601 94.4295 0.998601C94.4455 1.14193 94.4742 1.28525 94.4754 1.42858C94.4788 2.78916 94.4777 4.15075 94.4777 5.51133C94.4777 5.60015 94.4754 5.68897 94.488 5.77678C94.5052 5.89689 94.5764 5.95241 94.7119 5.93727C94.8279 5.92415 94.9427 5.89084 95.0552 5.85753C95.7108 5.66374 96.2929 5.36901 96.6902 4.85627C96.8429 4.65844 96.9772 4.44043 97.0622 4.21434C97.2023 3.84189 97.3033 3.45734 97.4044 3.07379C97.5284 2.60748 97.7477 2.19264 98.1702 1.87571C98.2184 1.83938 98.2597 1.79396 98.3103 1.76065C98.3826 1.7122 98.4561 1.66173 98.5376 1.62943C99.0061 1.44473 99.4745 1.26406 99.9981 1.23277C100.069 1.22873 100.137 1.19542 100.208 1.18129C100.341 1.15505 100.475 1.12073 100.609 1.11165C100.819 1.09752 101.03 1.10155 101.24 1.09752C101.352 1.0955 101.463 1.09146 101.535 0.998601C101.627 0.998601 101.719 0.998601 101.811 0.998601C101.81 1.58704 101.809 2.17548 101.808 2.76392C101.808 2.84467 101.805 2.92542 101.8 3.00515C101.793 3.097 101.733 3.14545 101.631 3.16968C101.323 3.24336 101.018 3.32209 100.711 3.40081C100.281 3.51184 99.9189 3.72784 99.5756 3.97411C99.2954 4.17497 99.0818 4.42125 98.8855 4.68771C98.6398 5.02281 98.463 5.38112 98.3252 5.75862C98.215 6.06041 98.2035 6.37633 98.1323 6.68316C98.0841 6.89109 98.1231 7.09598 98.2632 7.28473C98.6352 7.78334 98.9946 8.288 99.362 8.78863C99.4412 8.89663 99.5342 8.99656 99.6157 9.10355C99.8132 9.36496 100.005 9.63042 100.205 9.88982C100.502 10.2764 100.805 10.6589 101.104 11.0445C101.15 11.104 101.185 11.1707 101.234 11.2292C101.539 11.6016 101.847 11.9721 102.154 12.3425C102.198 12.394 102.24 12.4485 102.292 12.4929C102.408 12.5918 102.496 12.5948 102.563 12.4545C102.664 12.2385 102.775 12.0266 102.867 11.8086C103.089 11.2877 103.303 10.7649 103.52 10.2431C103.608 10.0311 103.696 9.81916 103.782 9.6072C103.943 9.21356 104.1 8.8179 104.264 8.42527C104.417 8.05485 104.576 7.68543 104.733 7.31602C104.859 7.0223 104.99 6.7306 105.114 6.43588C105.269 6.06646 105.419 5.69402 105.57 5.32359C105.833 4.67964 106.094 4.03568 106.36 3.39375C106.51 3.0314 106.67 2.67107 106.823 2.30972C106.899 2.12905 106.943 1.93324 107.047 1.7667C107.197 1.52244 107.284 1.26204 107.374 0.99961C108.371 0.996582 109.363 0.996582 110.353 0.996582ZM108.862 8.20726C109.239 8.20726 109.614 8.20928 109.991 8.20625C110.1 8.20524 110.21 8.19111 110.317 8.17395C110.375 8.16487 110.412 8.12247 110.398 8.06595C110.376 7.97107 110.359 7.87519 110.326 7.78334C110.181 7.38465 110.03 6.98798 109.883 6.59031C109.739 6.19969 109.6 5.80807 109.456 5.41847C109.396 5.25799 109.335 5.0975 109.26 4.94307C109.216 4.84921 109.15 4.83911 109.063 4.89664C108.867 5.02786 108.667 5.15604 108.483 5.30038C108.32 5.42856 108.188 5.58703 108.023 5.7132C107.796 5.88579 107.679 6.10583 107.592 6.34706C107.399 6.882 107.384 7.44117 107.31 7.99227C107.307 8.00842 107.308 8.02457 107.308 8.04072C107.31 8.1144 107.35 8.16688 107.434 8.17799C107.542 8.19313 107.652 8.20524 107.761 8.20625C108.128 8.20928 108.496 8.20726 108.862 8.20726Z" fill="#411D10"/>
<path d="M124.402 0.996493C124.511 1.51327 124.717 2.00684 124.895 2.50646C124.969 2.7154 125.015 2.73962 125.278 2.74063C126.059 2.74265 126.839 2.74063 127.619 2.74063C127.711 2.74063 127.803 2.74366 127.895 2.74164C128.035 2.73962 128.128 2.79412 128.215 2.89405C128.471 3.18777 128.742 3.4724 129.006 3.76107C129.345 4.13049 129.722 4.47568 129.967 4.90465C130.107 5.14891 130.223 5.40024 130.3 5.66771C130.361 5.88068 130.365 6.10072 130.423 6.30763C130.512 6.62053 130.498 6.93039 130.502 7.24329C130.505 7.39671 130.496 7.5471 130.438 7.69648C130.407 7.77824 130.4 7.87211 130.407 7.95891C130.431 8.24758 130.335 8.51909 130.253 8.7896C130.167 9.07726 130.047 9.35785 129.87 9.61524C129.818 9.69094 129.765 9.76765 129.7 9.83325C129.412 10.1179 129.083 10.3621 128.722 10.5701C128.623 10.6266 128.51 10.667 128.401 10.7063C127.959 10.8628 127.516 11.0182 127.073 11.1706C126.562 11.3463 126.098 11.5834 125.719 11.9367C125.478 12.1618 125.3 12.4242 125.146 12.6998C125.114 12.7573 125.077 12.8148 125.058 12.8764C125.006 13.0318 124.896 13.0904 124.711 13.0894C123.913 13.0843 123.114 13.0894 122.315 13.0864C122.069 13.0853 122.039 13.0641 121.964 12.8552C121.819 12.4565 121.675 12.0568 121.546 11.6541C121.5 11.5098 121.409 11.43 121.251 11.4038C121.124 11.3826 120.998 11.3644 120.871 11.3574C120.706 11.3483 120.54 11.3523 120.375 11.3483C120.292 11.3463 120.208 11.3483 120.128 11.3331C119.58 11.2342 119.036 11.1282 118.511 10.9546C117.923 10.7598 117.433 10.4389 117.017 10.0341C116.493 9.52238 116.231 8.90163 116.082 8.23244C115.959 7.68033 115.943 7.1252 115.982 6.57006C116.021 6.023 116.137 5.48401 116.388 4.97228C116.505 4.73508 116.614 4.49587 116.799 4.29198C116.924 4.1537 117.062 4.0235 117.188 3.88623C117.625 3.41083 118.2 3.12519 118.851 2.94653C119.104 2.87689 119.362 2.82037 119.619 2.76586C119.715 2.74568 119.82 2.74568 119.92 2.74467C120.48 2.74164 121.039 2.74164 121.6 2.73861C122.032 2.73659 122.086 2.68814 122.088 2.30157C122.089 1.86654 122.088 1.43051 122.086 0.995483C122.86 0.996493 123.632 0.996493 124.402 0.996493ZM122.09 7.05555C122.09 6.44288 122.091 5.82921 122.089 5.21654C122.089 5.13579 122.085 5.05504 122.071 4.97531C122.058 4.89658 121.997 4.8451 121.908 4.82996C121.846 4.81886 121.781 4.81482 121.717 4.81482C121.377 4.81482 121.037 4.81482 120.698 4.81886C120.608 4.81987 120.516 4.83299 120.426 4.84611C120.291 4.86529 120.158 4.89052 120.022 4.9097C119.631 4.96622 119.307 5.11358 119.12 5.43657C118.977 5.68386 118.898 5.94831 118.895 6.22588C118.889 6.66898 118.899 7.11308 118.889 7.55618C118.882 7.85697 118.915 8.14968 119.008 8.43936C119.112 8.76234 119.316 9.01064 119.676 9.12873C119.923 9.20948 120.177 9.28215 120.449 9.28114C120.853 9.27812 121.256 9.28518 121.66 9.28619C122.052 9.2872 122.089 9.25692 122.09 8.91677C122.091 8.29805 122.09 7.6763 122.09 7.05555ZM125.006 7.06565C125.006 7.62179 125.006 8.17895 125.006 8.73509C125.006 8.84006 125.003 8.94503 125.011 9.05001C125.025 9.23673 125.071 9.28215 125.278 9.28013C125.571 9.27812 125.867 9.30436 126.151 9.21049C126.201 9.19434 126.259 9.1903 126.314 9.19131C126.483 9.19232 126.638 9.1469 126.795 9.10047C127.096 9.01064 127.304 8.82189 127.398 8.5736C127.479 8.35659 127.555 8.12949 127.549 7.89028C127.54 7.51985 127.549 7.14841 127.549 6.77697C127.549 6.41462 127.556 6.05429 127.439 5.699C127.339 5.39519 127.185 5.14689 126.826 5.03687C126.601 4.96824 126.378 4.89557 126.131 4.90566C125.957 4.91273 125.786 4.89658 125.616 4.84914C125.514 4.82088 125.399 4.81987 125.29 4.82189C125.095 4.82592 125.034 4.88043 125.013 5.05706C125.004 5.1368 125.006 5.21856 125.006 5.2993C125.006 5.88775 125.007 6.4772 125.006 7.06565Z" fill="#411D10"/>
<path d="M142.693 0.996582C142.691 1.57695 142.688 2.15732 142.686 2.7387C142.686 2.81944 142.688 2.90019 142.68 2.98094C142.668 3.11316 142.624 3.15353 142.478 3.16564C142.378 3.17372 142.276 3.1717 142.175 3.1717C140.1 3.1717 138.026 3.1717 135.952 3.1717C135.842 3.1717 135.732 3.16968 135.623 3.17877C135.473 3.19189 135.431 3.23327 135.414 3.36045C135.407 3.40788 135.408 3.45734 135.408 3.50579C135.408 4.2315 135.408 4.95721 135.408 5.68293C135.408 5.73137 135.408 5.77982 135.415 5.82827C135.433 5.94636 135.488 6.00289 135.623 6.01904C135.732 6.03216 135.842 6.03115 135.952 6.03115C137.825 6.03216 139.697 6.03115 141.57 6.03216C141.68 6.03216 141.791 6.03115 141.9 6.04225C142.014 6.05436 142.058 6.09675 142.075 6.1987C142.084 6.25421 142.084 6.31073 142.084 6.36726C142.086 6.85073 142.084 7.33521 142.084 7.81868C142.084 7.86713 142.086 7.91558 142.079 7.96403C142.062 8.09625 142.021 8.13359 141.872 8.14369C141.781 8.15075 141.688 8.14772 141.597 8.14772C139.705 8.14772 137.814 8.14772 135.923 8.14772C135.822 8.14772 135.721 8.14571 135.62 8.15378C135.473 8.16589 135.43 8.20425 135.414 8.33546C135.403 8.4152 135.406 8.49695 135.406 8.57669C135.406 9.22973 135.404 9.88277 135.406 10.5368C135.406 11.0062 135.416 11.0163 135.94 11.0163C138.005 11.0163 140.071 11.0163 142.135 11.0163C142.236 11.0163 142.337 11.0132 142.438 11.0203C142.62 11.0314 142.664 11.0708 142.68 11.2242C142.685 11.2646 142.684 11.3049 142.684 11.3453C142.684 11.8207 142.684 12.2971 142.684 12.7725C142.684 12.7967 142.684 12.8209 142.683 12.8452C142.671 13.047 142.634 13.0793 142.404 13.0874C142.33 13.0904 142.257 13.0884 142.183 13.0884C139.108 13.0884 136.034 13.0884 132.959 13.0884C132.858 13.0884 132.757 13.0914 132.656 13.0834C132.509 13.0723 132.465 13.0329 132.453 12.8997C132.443 12.8038 132.447 12.7059 132.447 12.61C132.447 8.84417 132.447 5.07733 132.447 1.31149C132.447 1.20652 132.446 1.10155 132.445 0.996582C135.861 0.996582 139.277 0.996582 142.693 0.996582Z" fill="#411D10"/>
<path d="M59.2425 43.8474C59.2425 43.379 59.239 42.9117 59.2448 42.4434C59.2459 42.3324 59.2792 42.2213 59.2964 42.1103C59.3113 42.0144 59.3332 41.9195 59.3366 41.8237C59.3458 41.6218 59.3446 41.4199 59.3469 41.2191C59.3492 41.0656 59.3538 40.9142 59.4147 40.7659C59.4445 40.6922 59.4445 40.6074 59.448 40.5277C59.4549 40.3581 59.4549 40.1885 59.4595 40.02C59.4618 39.9473 59.4526 39.8696 59.4801 39.804C59.5754 39.5779 59.5616 39.3437 59.5662 39.1106C59.5697 38.9571 59.5869 38.8078 59.6351 38.6574C59.673 38.5352 59.6684 38.402 59.6742 38.2738C59.6822 38.0972 59.6845 37.9226 59.7488 37.749C59.7901 37.6369 59.7798 37.5097 59.7844 37.3896C59.7913 37.2362 59.8062 37.0878 59.8579 36.9375C59.9072 36.7921 59.9164 36.6367 59.9382 36.4843C59.9646 36.2925 59.9853 36.0997 60.0083 35.9079C60.0611 35.4679 60.1139 35.0268 60.1667 34.5867C60.1771 34.507 60.1943 34.4272 60.2046 34.3475C60.2287 34.1719 60.2505 33.9952 60.2735 33.8196C60.2884 33.7076 60.3068 33.5955 60.3171 33.4835C60.3688 32.9374 60.4859 32.3975 60.4963 31.8484C60.4974 31.7686 60.5181 31.6889 60.5273 31.6081C60.5537 31.3679 60.5778 31.1267 60.6042 30.8865C60.626 30.6856 60.6536 30.4858 60.6719 30.2849C60.6903 30.0679 60.7064 29.8509 60.7121 29.6339C60.719 29.3836 60.711 29.1333 60.7144 28.8839C60.719 28.5044 60.6857 28.129 60.6294 27.7515C60.5697 27.3427 60.5066 26.9359 60.3929 26.5372C60.2999 26.2092 60.1885 25.8842 60.0599 25.5663C59.8452 25.0323 59.5261 24.5398 59.2011 24.0543C58.8865 23.5829 58.5237 23.1358 58.185 22.6765C57.7762 22.1214 57.356 21.5723 57.1115 20.9384C57.0265 20.7174 56.9599 20.4923 56.8956 20.2662C56.7326 19.699 56.8152 19.1267 56.8175 18.5564C56.8187 18.3878 56.9174 18.2152 56.9943 18.0527C57.1011 17.8287 57.1976 17.6046 57.2573 17.3664C57.2791 17.2816 57.3262 17.2009 57.3698 17.1201C57.4065 17.0515 57.4731 17.0111 57.5569 16.9879C57.8784 16.896 58.1965 16.7941 58.5203 16.7083C58.8349 16.6235 59.1483 16.5327 59.4847 16.5387C59.5662 16.5397 59.6523 16.5357 59.7304 16.5175C60.0002 16.4539 60.2747 16.455 60.5514 16.455C63.0303 16.456 65.5091 16.455 67.988 16.455C68.1993 16.455 68.4071 16.457 68.6138 16.5135C68.7332 16.5458 68.8675 16.5367 68.9961 16.5408C69.189 16.5468 69.3773 16.5559 69.5645 16.6144C69.7355 16.6679 69.9204 16.6851 70.0984 16.7234C70.4003 16.789 70.6931 16.8779 70.9847 16.9768C71.5244 17.1595 72.0663 17.3381 72.583 17.5662C72.9848 17.7429 73.3775 17.9346 73.769 18.1294C74.0561 18.2728 74.3339 18.4292 74.6129 18.5837C74.7519 18.6604 74.8885 18.7431 75.0217 18.8289C75.59 19.1963 76.1607 19.5627 76.667 19.9977C76.7646 20.0825 76.8737 20.1572 76.9816 20.2319C77.3375 20.4782 77.6005 20.8042 77.9162 21.0848C78.0196 21.1766 78.116 21.2735 78.2124 21.3714C78.2721 21.432 78.333 21.4936 78.3835 21.5592C78.6086 21.8529 78.8359 22.1456 79.0495 22.4454C79.17 22.6149 79.2825 22.7926 79.3709 22.9773C79.4743 23.1923 79.5569 23.4154 79.6339 23.6384C79.7452 23.9624 79.8325 24.2894 79.8268 24.6326C79.8176 25.2453 79.821 25.859 79.821 26.4716C79.821 26.617 79.8153 26.7613 79.7567 26.9006C79.7384 26.945 79.7246 26.9955 79.7269 27.0429C79.7372 27.3275 79.6764 27.6041 79.5971 27.8766C79.4972 28.2188 79.4111 28.563 79.2527 28.893C79.1241 29.1615 78.9863 29.4219 78.8267 29.6763C78.6706 29.9236 78.4995 30.1597 78.2951 30.3778C78.0448 30.6442 77.8129 30.9238 77.5637 31.1913C77.2905 31.484 76.9965 31.7626 76.7302 32.0603C76.2766 32.57 75.884 33.1121 75.6853 33.7459C75.6681 33.8004 75.6406 33.8519 75.6222 33.9054C75.5854 34.0174 75.6118 34.0891 75.7198 34.1587C75.7634 34.187 75.8151 34.2062 75.8644 34.2274C76.2962 34.406 76.7313 34.5766 77.186 34.7058C77.4466 34.7805 77.7015 34.8754 77.9644 34.94C78.3594 35.0379 78.7521 35.1499 79.1585 35.2014C79.3836 35.2297 79.6166 35.2216 79.8451 35.2115C80.0334 35.2034 80.1597 35.0863 80.2688 34.9642C80.619 34.5695 80.8911 34.1305 81.1965 33.7096C81.6558 33.0757 82.0278 32.4015 82.4285 31.7394C82.5789 31.4901 82.7075 31.2307 82.8533 30.9793C83.099 30.5554 83.3608 30.1386 83.5985 29.7116C84.0497 28.9001 84.4929 28.0856 84.9315 27.269C85.1187 26.9198 85.2656 26.5534 85.4688 26.2112C85.8684 25.538 86.2083 24.8426 86.5642 24.1522C86.6813 23.9251 86.8145 23.704 86.9293 23.4749C87.1647 23.0025 87.392 22.5271 87.6251 22.0538C87.6871 21.9286 87.764 21.8085 87.826 21.6833C88.1429 21.0404 88.4747 20.4025 88.7675 19.7504C89.0523 19.1146 89.3875 18.4938 89.608 17.8357C89.6264 17.7822 89.6562 17.7318 89.6849 17.6813C89.7251 17.6106 89.794 17.5743 89.8835 17.5713C89.957 17.5693 90.0305 17.5672 90.104 17.5672C90.9399 17.5672 91.7746 17.5672 92.6104 17.5662C92.8045 17.5662 92.9951 17.5713 93.1822 17.6238C93.2339 17.6379 93.2901 17.644 93.3453 17.648C94.0078 17.6975 94.5738 17.9488 95.0916 18.299C95.2156 18.3828 95.3465 18.4585 95.4636 18.5473C95.6014 18.6523 95.7449 18.7573 95.8574 18.8824C96.0848 19.1347 96.2972 19.3982 96.5085 19.6606C96.8012 20.024 97.0251 20.4206 97.2329 20.8254C97.2628 20.8839 97.2869 20.9455 97.3191 21.003C97.6245 21.539 97.8415 22.1052 98.039 22.6745C98.2319 23.2286 98.4052 23.7888 98.5602 24.352C98.7164 24.9152 98.8519 25.4835 98.9759 26.0538C99.0769 26.5211 99.1481 26.9924 99.2285 27.4628C99.2755 27.7414 99.2882 28.027 99.3639 28.3005C99.4351 28.5599 99.4707 28.8204 99.5167 29.0818C99.5568 29.3119 99.5718 29.5461 99.6223 29.7732C99.6751 30.0114 99.6969 30.2496 99.7291 30.4888C99.7669 30.7664 99.8462 31.0399 99.9059 31.3154C99.9174 31.371 99.9265 31.4275 99.9277 31.483C99.9323 31.6364 99.9403 31.7898 100.013 31.9332C100.02 31.9473 100.025 31.9644 100.025 31.9806C100.032 32.239 100.087 32.4913 100.142 32.7437C100.176 32.892 100.162 33.0495 100.234 33.1928C100.238 33.1999 100.24 33.2079 100.241 33.216C100.286 33.5107 100.325 33.8055 100.377 34.0982C100.429 34.399 100.494 34.6987 100.555 34.9985C100.559 35.0217 100.573 35.0449 100.576 35.0682C100.621 35.371 100.663 35.6738 100.708 35.9756C100.725 36.0785 100.746 36.1815 100.767 36.2834C100.772 36.3066 100.788 36.3288 100.791 36.353C100.837 36.6629 100.882 36.9738 100.928 37.2837C100.948 37.4189 100.975 37.5531 100.994 37.6884C101.012 37.8075 101.029 37.9276 101.035 38.0477C101.043 38.2254 101.047 38.399 101.113 38.5726C101.152 38.6755 101.141 38.7956 101.145 38.9077C101.15 39.0853 101.153 39.262 101.222 39.4335C101.248 39.5002 101.25 39.5759 101.253 39.6485C101.258 39.7939 101.263 39.9392 101.33 40.0755C101.34 40.0977 101.349 40.1229 101.348 40.1461C101.334 40.4156 101.447 40.669 101.485 40.9314C101.511 41.1141 101.563 41.2948 101.613 41.4734C101.705 41.8015 101.807 42.1265 101.901 42.4545C102.027 42.8915 102.141 43.3316 102.275 43.7666C102.417 44.2329 102.579 44.6952 102.729 45.1595C102.913 45.7258 103.092 46.292 103.276 46.8572C103.346 47.0742 103.416 47.2922 103.501 47.5042C103.609 47.7727 103.606 48.0493 103.555 48.3177C103.423 49.0051 103.021 49.53 102.276 49.8166C102.033 49.9095 101.78 49.9811 101.506 49.9781C101.038 49.9731 100.57 49.9811 100.102 49.9731C99.9575 49.971 99.8129 49.9397 99.6705 49.9135C99.4466 49.8721 99.2204 49.8368 99.0034 49.7762C98.4776 49.6299 97.9747 49.4351 97.5062 49.1757C97.2662 49.0434 97.0194 48.9183 96.7806 48.7841C96.3018 48.5146 95.8287 48.239 95.3833 47.9271C95.265 47.8444 95.2007 47.7525 95.2041 47.6203C95.2133 47.2499 95.1904 46.8794 95.2397 46.509C95.2845 46.1658 95.3029 45.8176 95.3086 45.4714C95.319 44.8184 95.3167 44.1643 95.3098 43.5113C95.3086 43.3518 95.273 43.1913 95.2512 43.0318C95.2374 42.9279 95.211 42.8249 95.2053 42.721C95.1708 42.0538 95.0113 41.4108 94.7403 40.7891C94.5118 40.2662 94.1099 39.8867 93.5117 39.6778C93.4773 39.6657 93.4452 39.6465 93.4096 39.6415C93.1214 39.6011 92.8332 39.5496 92.5427 39.5274C92.2878 39.5082 92.0295 39.5234 91.7723 39.5234C91.5702 39.5234 91.3681 39.5163 91.1752 39.586C91.1259 39.6041 91.0673 39.6041 91.0122 39.6061C90.4703 39.6243 90.034 39.8464 89.6378 40.1502C89.2808 40.4227 89.0752 40.781 88.8846 41.1494C88.7055 41.4966 88.5873 41.857 88.5115 42.2324C88.4621 42.4767 88.3875 42.7179 88.3301 42.9612C88.3129 43.0318 88.3186 43.1055 88.3083 43.1772C88.2899 43.2963 88.2646 43.4144 88.2463 43.5345C88.2279 43.6536 88.2084 43.7737 88.2015 43.8938C88.1911 44.1027 88.19 44.3097 88.1223 44.5166C88.0798 44.6448 88.0935 44.7881 88.089 44.9254C88.0832 45.1272 88.0798 45.3261 88.012 45.5239C87.973 45.6369 87.9833 45.7631 87.9787 45.8842C87.973 46.0376 87.9718 46.1901 87.9064 46.3364C87.8834 46.3879 87.8777 46.4464 87.8731 46.5019C87.8352 46.9632 87.6814 47.4013 87.5126 47.8343C87.4196 48.0715 87.2818 48.2965 87.0866 48.4792C86.8581 48.6942 86.586 48.8598 86.2289 48.8638C85.8156 48.8678 85.4022 48.8678 84.9889 48.8678C84.6674 48.8678 84.3459 48.8628 84.0245 48.8678C83.4779 48.8769 83.029 48.6761 82.6317 48.3702C82.4182 48.2057 82.2448 48.0109 82.0921 47.7949C81.7798 47.3528 81.5502 46.8815 81.3687 46.3889C81.3182 46.2516 81.2597 46.1164 81.2057 45.9791C81.0966 45.7046 81.0576 45.4169 80.9921 45.1343C80.9233 44.8436 80.8567 44.5529 80.8004 44.2602C80.7774 44.1421 80.7809 44.019 80.7763 43.8989C80.7706 43.7293 80.7706 43.5617 80.6994 43.3982C80.6707 43.3326 80.673 43.2559 80.6707 43.1832C80.6638 42.9814 80.6684 42.7795 80.6557 42.5786C80.6488 42.4595 80.6155 42.3414 80.5983 42.2223C80.5834 42.1265 80.565 42.0306 80.5627 41.9347C80.5558 41.4744 80.5547 41.0152 80.5513 40.5549C80.5513 40.4903 80.5547 40.4257 80.5478 40.3611C80.5409 40.2935 80.5708 40.1956 80.4674 40.1774C80.3802 40.1623 80.3251 40.24 80.2826 40.3026C80.1689 40.4681 80.0564 40.6347 79.9462 40.8012C79.8176 40.996 79.6924 41.1928 79.5615 41.3866C79.201 41.9195 78.8359 42.4505 78.4754 42.9844C78.3491 43.1711 78.2366 43.3639 78.1091 43.5496C78.0058 43.701 77.8818 43.8413 77.7796 43.9937C77.5465 44.3409 77.3238 44.6932 77.0918 45.0404C76.8048 45.4714 76.5143 45.9014 76.2227 46.3314C75.923 46.7745 75.6199 47.2155 75.3191 47.6586C75.2387 47.7767 75.1606 47.8948 75.0837 48.0139C74.9023 48.2935 74.722 48.5741 74.5406 48.8537C74.5176 48.889 74.4924 48.9223 74.4671 48.9556C74.3362 49.1313 74.3213 49.1323 74.1433 48.9799C74.1169 48.9577 74.0905 48.9355 74.0664 48.9112C73.8919 48.7346 73.6783 48.667 73.4085 48.67C72.5818 48.6781 71.7563 48.668 70.9296 48.666C70.7643 48.665 70.6024 48.6559 70.4405 48.6145C70.32 48.5832 70.1868 48.5802 70.0593 48.5792C69.104 48.5721 68.1499 48.5691 67.1946 48.565C67.0201 48.564 66.849 48.5569 66.678 48.5135C66.5574 48.4833 66.4242 48.4833 66.2968 48.4823C65.3415 48.4762 64.3874 48.4722 63.4321 48.4681C63.2668 48.4671 63.1049 48.4611 62.9418 48.4187C62.8305 48.3894 62.7065 48.3864 62.5882 48.3854C62.0187 48.3793 61.4492 48.3783 60.8809 48.3753C60.8074 48.3753 60.7339 48.3763 60.6604 48.3733C60.4411 48.3642 60.4124 48.345 60.3516 48.1633C60.2896 47.9776 60.2368 47.7888 60.1679 47.6051C60.0795 47.368 59.9532 47.1459 59.828 46.9208C59.6179 46.5463 59.4503 46.1547 59.3297 45.7459C59.2367 45.4351 59.2333 45.1252 59.2298 44.8123C59.2264 44.4893 59.2287 44.1673 59.2287 43.8444C59.2344 43.8474 59.239 43.8474 59.2425 43.8474ZM71.9699 37.8832C71.9664 37.6167 71.9733 37.3301 71.8539 37.0475C71.7391 36.779 71.5933 36.5287 71.3809 36.3177C71.0169 35.9594 70.5737 35.6879 70.0765 35.486C69.894 35.4123 69.7034 35.3498 69.5151 35.2872C69.4037 35.2498 69.2889 35.2196 69.1752 35.1913C68.9789 35.1429 68.8951 35.1913 68.8744 35.3639C68.8664 35.4356 68.8687 35.5092 68.8687 35.5819C68.8687 36.1219 68.8687 36.6629 68.8675 37.2029C68.8675 37.2998 68.8652 37.3967 68.856 37.4926C68.8262 37.8297 68.7757 38.1668 68.7688 38.505C68.7619 38.8067 68.6838 39.0974 68.6172 39.3871C68.4886 39.9402 68.2728 40.4732 68.0121 40.9899C67.9157 41.1817 67.8261 41.3765 67.7343 41.5693C67.7021 41.6359 67.6528 41.7066 67.7285 41.7702C67.7928 41.8247 67.8709 41.7833 67.9364 41.7651C68.4978 41.6137 69.0512 41.4421 69.5472 41.1565C69.6391 41.104 69.7275 41.0455 69.8228 40.997C70.1914 40.8093 70.475 40.5297 70.8125 40.3076C70.8412 40.2885 70.8665 40.2632 70.8883 40.237C71.1156 39.9645 71.3613 39.7051 71.5485 39.4053C71.8321 38.9501 72.0055 38.4757 71.9722 37.9518C71.9687 37.9387 71.9699 37.9226 71.9699 37.8832ZM71.9664 25.4451C71.9676 25.4451 71.9687 25.4451 71.9699 25.4451C71.9699 25.3805 71.9653 25.3159 71.971 25.2513C72.0032 24.8274 71.8103 24.4842 71.4785 24.1915C71.1662 23.915 70.8148 23.6929 70.4061 23.5324C69.9927 23.3699 69.5587 23.274 69.1259 23.1741C68.941 23.1317 68.7504 23.1035 68.561 23.0833C68.4255 23.0691 68.2866 23.0702 68.1499 23.0803C68.0489 23.0873 68.011 23.1479 68.0294 23.2357C68.0363 23.267 68.0523 23.2973 68.0615 23.3275C68.1924 23.7636 68.3233 24.1986 68.4507 24.6356C68.6034 25.1585 68.7516 25.6823 68.9031 26.2052C69.0432 26.6886 69.1844 27.1731 69.3302 27.6556C69.3555 27.7404 69.398 27.8221 69.4439 27.9008C69.5266 28.0422 69.5576 28.0512 69.7252 28.0078C70.3808 27.8383 70.9664 27.5668 71.4038 27.0924C71.5186 26.9682 71.6346 26.837 71.7058 26.6917C71.8654 26.3656 71.9745 26.0245 71.9687 25.6642C71.9653 25.5905 71.9664 25.5178 71.9664 25.4451ZM93.3889 31.6142C93.3889 31.0984 93.3889 30.5817 93.3889 30.0659C93.3889 29.9932 93.3912 29.9205 93.3832 29.8479C93.3671 29.7015 93.312 29.6601 93.1512 29.6793C93.0433 29.6924 92.9354 29.7177 92.8297 29.7409C92.5324 29.8065 92.2855 29.968 92.0122 30.081C91.8469 30.1497 91.6758 30.2193 91.5358 30.3182C91.1649 30.5786 90.8836 30.9067 90.6941 31.2892C90.484 31.7131 90.4002 32.1683 90.3072 32.6195C90.2693 32.8012 90.2647 32.9879 90.2349 33.1716C90.1786 33.5239 90.2234 33.5764 90.6195 33.5774C91.1523 33.5794 91.6839 33.5784 92.2166 33.5784C92.5105 33.5784 92.8045 33.5814 93.0973 33.5753C93.3189 33.5703 93.3717 33.5198 93.3854 33.3301C93.39 33.2736 93.3877 33.217 93.3877 33.1605C93.3889 32.6457 93.3889 32.13 93.3889 31.6142Z" fill="#411D10"/>
<path d="M125.006 36.3047C125.006 40.4107 125.005 44.5177 125.007 48.6237C125.007 48.9891 124.953 49.3474 124.886 49.7057C124.812 50.0892 124.469 50.4607 123.89 50.5111C123.809 50.5182 123.727 50.5364 123.649 50.5556C123.414 50.6141 123.184 50.599 122.944 50.5556C122.573 50.4869 122.231 50.3507 121.877 50.2447C121.507 50.1337 121.154 49.9691 120.802 49.8137C120.482 49.6734 120.17 49.5169 119.86 49.3605C119.726 49.2929 119.607 49.202 119.475 49.1294C119.195 48.9759 118.912 48.8286 118.63 48.6772C118.513 48.6136 118.398 48.547 118.286 48.4793C117.975 48.2936 117.666 48.1059 117.356 47.9212C117.239 47.8515 117.187 47.7556 117.191 47.6335C117.201 47.15 117.153 46.6656 117.262 46.1851C117.287 46.0751 117.292 45.961 117.295 45.848C117.301 45.63 117.304 45.412 117.299 45.195C117.289 44.8467 117.328 44.5025 117.381 44.1584C117.4 44.0393 117.406 43.9171 117.406 43.797C117.409 42.4092 117.408 41.0223 117.409 39.6345C117.409 39.4649 117.393 39.2984 117.34 39.1329C117.303 39.0188 117.305 38.8936 117.302 38.7735C117.297 38.6201 117.277 38.4707 117.233 38.3203C117.172 38.1104 117.134 37.8954 117.091 37.6814C117.001 37.2424 116.851 36.8225 116.589 36.4359C116.426 36.1967 116.219 35.9908 115.954 35.8424C115.744 35.7253 115.498 35.6638 115.249 35.6607C114.615 35.6527 113.98 35.6294 113.349 35.6658C112.621 35.7082 112.045 36.0695 111.775 36.7125C111.524 37.307 111.394 37.9227 111.403 38.5606C111.41 39.0602 111.41 39.5608 111.404 40.0615C111.398 40.5066 111.437 40.9477 111.498 41.3877C111.512 41.4836 111.515 41.5805 111.513 41.6774C111.504 42.0821 111.549 42.4829 111.607 42.8826C111.614 42.93 111.62 42.9784 111.621 43.0269C111.627 43.5588 111.646 44.0907 111.666 44.6227C111.686 45.1616 111.656 45.7037 111.612 46.2416C111.586 46.5444 111.483 46.8422 111.423 47.143C111.36 47.4579 111.205 47.7415 111.033 48.0171C110.871 48.2755 110.628 48.4804 110.354 48.6418C110.111 48.7852 109.826 48.8649 109.524 48.8669C109.331 48.8689 109.139 48.87 108.946 48.8679C108.671 48.8659 108.401 48.8478 108.128 48.7963C107.855 48.7438 107.595 48.6691 107.354 48.5581C107.087 48.4349 106.831 48.2906 106.586 48.1352C106.463 48.0574 106.363 47.9414 106.276 47.8293C106.099 47.6042 105.927 47.3751 105.774 47.1369C105.567 46.8119 105.44 46.4586 105.34 46.0973C105.278 45.8712 105.212 45.6451 105.152 45.419C105.136 45.3564 105.137 45.2908 105.13 45.2272C105.123 45.1627 105.131 45.094 105.106 45.0355C105.003 44.8023 105.025 44.5591 105.019 44.3178C105.015 44.1483 105.014 43.9807 104.949 43.8162C104.917 43.7354 104.916 43.6416 104.916 43.5538C104.914 42.0852 104.913 40.6176 104.919 39.149C104.92 38.9401 104.962 38.7322 104.983 38.5232C104.994 38.4193 105.004 38.3143 105.011 38.2103C105.022 38.0508 104.968 37.9146 104.855 37.7844C104.346 37.203 103.82 36.6347 103.229 36.1159C102.872 35.803 102.561 35.4538 102.258 35.0985C102.065 34.8714 101.891 34.6383 101.735 34.391C101.546 34.0902 101.434 33.7652 101.355 33.4361C101.245 32.984 101.36 32.5732 101.751 32.2401C101.943 32.0776 102.128 31.909 102.316 31.7435C102.343 31.7203 102.367 31.696 102.395 31.6769C102.842 31.3821 103.287 31.0864 103.738 30.7957C103.981 30.6383 104.234 30.4899 104.482 30.3385C104.782 30.1548 105.08 29.966 105.387 29.7914C105.52 29.7157 105.571 29.6229 105.57 29.4906C105.565 29.0869 105.564 28.6842 105.561 28.2804C105.561 28.232 105.561 28.1805 105.541 28.1371C105.447 27.9272 105.466 27.7092 105.462 27.4911C105.459 27.2004 105.456 26.9108 105.454 26.6201C105.453 26.4101 105.455 26.2022 105.379 25.9973C105.35 25.9156 105.354 25.8217 105.354 25.7339C105.353 24.2976 105.353 22.8623 105.352 21.426C105.352 21.2797 105.371 21.1394 105.417 20.997C105.454 20.883 105.452 20.7578 105.456 20.6377C105.463 20.4682 105.466 20.2996 105.532 20.1371C105.56 20.0705 105.553 19.9938 105.569 19.9231C105.658 19.5295 105.722 19.1278 105.908 18.7583C106.034 18.508 106.191 18.2698 106.346 18.0326C106.466 17.8489 106.683 17.7631 106.887 17.6753C106.999 17.6269 107.133 17.6117 107.258 17.5875C107.311 17.5774 107.369 17.5714 107.421 17.5794C107.92 17.6612 108.404 17.7793 108.804 18.075C108.979 18.2042 109.157 18.3314 109.322 18.4707C109.44 18.5696 109.54 18.6867 109.648 18.7947C109.757 18.9037 109.871 19.0087 109.977 19.1207C110.094 19.2448 110.205 19.372 110.314 19.5002C110.474 19.6869 110.637 19.8716 110.784 20.0654C111.048 20.4137 111.302 20.7679 111.558 21.1212C111.73 21.3584 111.895 21.6006 112.07 21.8368C112.157 21.9539 112.173 22.073 112.142 22.2062C112.085 22.4515 112.054 22.6998 112.057 22.9511C112.058 23.0309 112.036 23.1106 112.027 23.1914C112.001 23.4154 111.976 23.6395 111.949 23.8646C111.896 24.3127 111.842 24.7619 111.79 25.21C111.768 25.3947 111.749 25.5784 111.729 25.7631C111.72 25.851 111.712 25.9398 111.701 26.0276C111.674 26.2759 111.646 26.5242 111.617 26.7735C111.608 26.8532 111.598 26.934 111.588 27.0137C111.527 27.478 111.451 27.9413 111.41 28.4066C111.368 28.8699 111.516 29.2989 111.799 29.6935C111.942 29.8944 112.113 30.0761 112.318 30.2234C112.599 30.4273 112.895 30.607 113.263 30.6988C113.719 30.8129 114.176 30.7957 114.628 30.7594C114.903 30.7372 115.187 30.6736 115.44 30.5494C115.464 30.5373 115.487 30.5232 115.512 30.5151C116.005 30.3738 116.395 30.0892 116.781 29.8045C117.243 29.4634 117.536 29.0193 117.706 28.5126C117.731 28.4369 117.735 28.3531 117.737 28.2734C117.743 28.0877 117.742 27.9019 117.742 27.7172C117.742 24.8537 117.742 21.9892 117.742 19.1257C117.742 19.0288 117.739 18.9319 117.751 18.8361C117.765 18.724 117.837 18.6594 117.953 18.6907C118.229 18.7654 118.516 18.7553 118.792 18.8108C119.24 18.9007 119.674 19.0288 120.105 19.1661C120.174 19.1883 120.242 19.2105 120.307 19.2398C120.779 19.4558 121.259 19.6587 121.717 19.8969C122.19 20.1421 122.637 20.4248 123.036 20.7619C123.115 20.8285 123.204 20.887 123.283 20.9547C123.408 21.0606 123.531 21.1686 123.651 21.2787C123.721 21.3422 123.781 21.4149 123.852 21.4775C124.336 21.9034 124.665 22.4111 124.858 22.9844C124.957 23.2782 125.006 23.582 125.005 23.8918C125.003 25.2312 125.004 26.5706 125.004 27.909C125.006 30.7059 125.006 33.5058 125.006 36.3047Z" fill="#411D10"/>
<path d="M134.194 46.3125C134.194 47.0544 134.195 47.7973 134.194 48.5391C134.193 48.847 134.17 48.8682 133.817 48.8682C132.982 48.8692 132.146 48.8611 131.311 48.8692C130.843 48.8732 130.406 48.7652 129.973 48.629C129.631 48.521 129.35 48.3241 129.055 48.1475C129.017 48.1253 128.983 48.096 128.955 48.0647C128.727 47.8033 128.483 47.554 128.305 47.2583C128.046 46.8283 127.852 46.3771 127.699 45.9128C127.592 45.5888 127.524 45.2558 127.438 44.9277C127.376 44.6935 127.311 44.4594 127.252 44.2242C127.205 44.0355 127.163 43.8467 127.124 43.657C127.075 43.4198 127.034 43.1805 126.986 42.9433C126.957 42.801 126.919 42.6607 126.885 42.5194C126.825 42.2762 126.764 42.0329 126.706 41.7897C126.691 41.7271 126.684 41.6625 126.67 41.5989C126.651 41.504 126.629 41.4102 126.608 41.3153C126.592 41.2446 126.577 41.173 126.56 41.1023C126.538 41.0084 126.516 40.9136 126.492 40.8197C126.483 40.7803 126.463 40.742 126.46 40.7026C126.426 40.3887 126.322 40.0879 126.251 39.7811C126.195 39.5368 126.156 39.2895 126.106 39.0443C126.073 38.8777 126.035 38.7122 125.996 38.5467C125.942 38.3185 125.884 38.0904 125.831 37.8623C125.777 37.6251 125.729 37.3869 125.765 37.1437C125.768 37.1275 125.772 37.1114 125.771 37.0952C125.763 36.531 126.032 36.0475 126.351 35.5812C126.426 35.4712 126.538 35.3824 126.62 35.2754C126.992 34.7879 127.486 34.4033 127.972 34.0107C128.14 33.8754 128.283 33.716 128.437 33.5676C128.474 33.5323 128.507 33.4919 128.549 33.4616C128.824 33.2638 129.019 33.0064 129.195 32.744C129.389 32.4533 129.562 32.1474 129.671 31.8204C129.783 31.4883 129.901 31.1573 129.992 30.8212C130.061 30.5638 130.089 30.2983 130.138 30.0359C130.153 29.9562 130.172 29.8784 130.188 29.7987C130.206 29.7119 130.225 29.6251 130.243 29.5383C130.263 29.4434 130.281 29.3485 130.302 29.2537C130.312 29.2062 130.336 29.1598 130.34 29.1123C130.364 28.7157 130.506 28.3382 130.59 27.9516C130.611 27.8577 130.66 27.7679 130.686 27.674C130.853 27.0684 131.122 26.4951 131.419 25.9329C131.573 25.6422 131.769 25.3677 131.952 25.0891C132.07 24.9074 132.192 24.7278 132.323 24.5532C132.479 24.3452 132.648 24.1454 132.811 23.9405C132.868 23.8678 132.922 23.7921 132.979 23.7194C133.256 23.3692 133.538 23.021 133.811 22.6677C134.149 22.2276 134.488 21.7876 134.814 21.3394C135.097 20.9508 135.299 20.5259 135.49 20.0989C135.588 19.8819 135.679 19.6619 135.75 19.4378C135.824 19.2067 135.917 18.9775 135.93 18.7333C135.931 18.7171 135.93 18.7 135.937 18.6858C136.066 18.4164 136.032 18.1317 136.043 17.8501C136.044 17.8178 136.044 17.7855 136.048 17.7532C136.068 17.6291 136.116 17.5847 136.258 17.5695C136.331 17.5614 136.405 17.5635 136.479 17.5635C137.333 17.5635 138.187 17.5604 139.041 17.5655C139.213 17.5665 139.385 17.5988 139.557 17.619C139.63 17.6271 139.702 17.6412 139.774 17.6482C140.333 17.7017 140.832 17.8875 141.297 18.163C141.766 18.4416 142.145 18.8039 142.524 19.1653C142.664 19.2995 142.761 19.4701 142.877 19.6245C143.234 20.0969 143.487 20.6137 143.743 21.1325C144.014 21.6806 144.195 22.2559 144.409 22.8201C144.522 23.1169 144.588 23.4267 144.673 23.7315C144.773 24.0909 144.877 24.4502 144.967 24.8115C145.028 25.0548 145.068 25.3021 145.119 25.5474C145.157 25.729 145.195 25.9107 145.235 26.0924C145.296 26.3679 145.363 26.6435 145.419 26.9201C145.473 27.1896 145.51 27.4601 145.563 27.7295C145.607 27.9516 145.663 28.1716 145.71 28.3927C145.771 28.6773 145.826 28.964 145.886 29.2486C145.988 29.7321 146.091 30.2145 146.197 30.697C146.275 31.0533 146.359 31.4086 146.439 31.7649C146.485 31.9708 146.525 32.1767 146.571 32.3826C146.582 32.429 146.606 32.4735 146.626 32.5189C146.646 32.5633 146.679 32.6057 146.688 32.6521C146.736 32.8812 146.775 33.1114 146.821 33.3405C146.862 33.5464 146.896 33.7533 146.954 33.9552C147.042 34.2671 147.093 34.585 147.159 34.8999C147.213 35.1522 147.284 35.4016 147.339 35.6529C147.392 35.8971 147.435 36.1434 147.483 36.3887C147.497 36.4604 147.516 36.53 147.532 36.6006C147.551 36.6794 147.569 36.7581 147.587 36.8358C147.609 36.9297 147.632 37.0246 147.655 37.1184C147.668 37.174 147.689 37.2285 147.692 37.284C147.701 37.4212 147.716 37.5565 147.778 37.6857C147.802 37.7362 147.799 37.7967 147.81 37.8512C147.832 37.9542 147.854 38.0561 147.877 38.1581C147.886 38.1974 147.903 38.2358 147.909 38.2751C147.958 38.6022 148.026 38.9262 148.119 39.2451C148.135 39.2996 148.132 39.3572 148.142 39.4127C148.162 39.5156 148.183 39.6176 148.205 39.7205C148.22 39.7912 148.236 39.8628 148.251 39.9335C148.274 40.0354 148.297 40.1384 148.319 40.2403C148.334 40.311 148.346 40.3827 148.361 40.4543C148.382 40.5492 148.404 40.6431 148.423 40.7379C148.441 40.8167 148.456 40.8964 148.472 40.9751C148.49 41.0619 148.508 41.1487 148.528 41.2355C148.535 41.2668 148.553 41.2971 148.559 41.3284C148.606 41.5908 148.651 41.8523 148.695 42.1147C148.701 42.147 148.702 42.1793 148.71 42.2106C148.809 42.6113 148.915 43.01 149.004 43.4127C149.062 43.6731 149.094 43.9376 149.143 44.199C149.174 44.3655 149.214 44.531 149.252 44.6966C149.311 44.957 149.371 45.2164 149.43 45.4768C149.436 45.5 149.445 45.5232 149.45 45.5475C149.495 45.8099 149.535 46.0723 149.584 46.3337C149.637 46.6113 149.701 46.8868 149.759 47.1634C149.774 47.2351 149.785 47.3067 149.797 47.3784C149.809 47.4501 149.816 47.5227 149.832 47.5934C149.884 47.8306 149.939 48.0668 149.991 48.304C150.017 48.4271 149.985 48.5472 149.931 48.6582C149.855 48.8137 149.771 48.9671 149.63 49.0882C149.611 49.1054 149.59 49.1215 149.574 49.1407C149.21 49.5697 148.683 49.7746 148.131 49.9401C148.038 49.9684 147.932 49.9724 147.832 49.9734C147.529 49.9774 147.226 49.9785 146.923 49.9704C146.806 49.9674 146.688 49.9381 146.573 49.9189C146.519 49.9098 146.466 49.8937 146.412 49.8856C145.684 49.7826 144.98 49.6 144.324 49.3062C143.548 48.958 142.795 48.5714 142.079 48.1324C141.989 48.0769 141.91 48.0072 141.817 47.9567C141.65 47.8659 141.58 47.7397 141.596 47.5702C141.601 47.5217 141.594 47.4733 141.6 47.4248C141.686 46.6436 141.625 45.8614 141.647 45.0791C141.653 44.8783 141.674 44.6774 141.686 44.4765C141.692 44.3635 141.71 44.2484 141.692 44.1384C141.63 43.769 141.655 43.3976 141.643 43.0271C141.639 42.8828 141.627 42.7374 141.603 42.5941C141.553 42.2832 141.501 41.9724 141.431 41.6635C141.391 41.4828 141.327 41.3052 141.252 41.1336C141.096 40.7723 140.917 40.418 140.643 40.1101C140.475 39.9194 140.228 39.8204 139.989 39.7205C139.825 39.6519 139.65 39.5974 139.46 39.6024C139.415 39.6034 139.368 39.5933 139.324 39.5822C138.981 39.4924 138.639 39.4914 138.295 39.5812C138.252 39.5923 138.206 39.6004 138.16 39.6024C137.794 39.6236 137.469 39.7468 137.156 39.9073C136.651 40.1656 136.214 40.4977 135.851 40.8974C135.416 41.3758 135.04 41.8896 134.739 42.4468C134.537 42.8212 134.418 43.2149 134.292 43.6095C134.192 43.9204 134.194 44.2303 134.193 44.5432C134.192 45.1346 134.194 45.7231 134.194 46.3125ZM139.729 31.5893C139.729 31.0493 139.731 30.5093 139.728 29.9693C139.728 29.8895 139.72 29.8078 139.702 29.7301C139.687 29.6675 139.628 29.6342 139.555 29.6523C139.414 29.6867 139.266 29.7119 139.137 29.7684C138.667 29.9743 138.229 30.2226 137.873 30.5678C137.573 30.8585 137.377 31.2057 137.211 31.565C136.968 32.096 136.807 32.6501 136.655 33.2052C136.636 33.2739 136.636 33.3496 136.643 33.4202C136.65 33.5 136.706 33.5534 136.799 33.5666C136.844 33.5736 136.89 33.5767 136.936 33.5767C137.761 33.5777 138.587 33.5797 139.413 33.5757C139.669 33.5746 139.716 33.5272 139.726 33.3052C139.729 33.2406 139.727 33.176 139.727 33.1114C139.729 32.6047 139.729 32.097 139.729 31.5893Z" fill="#411D10"/>
<path d="M23.1247 36.5642C23.1247 40.8801 23.1247 45.1961 23.1247 49.511C23.1247 49.6079 23.1282 49.7048 23.119 49.8017C23.1086 49.9208 23.0639 49.9601 22.9353 49.9753C22.8721 49.9823 22.8067 49.9823 22.7424 49.9823C22.1453 49.9823 21.5483 49.9733 20.9524 49.9834C20.6332 49.9884 20.3358 49.9107 20.035 49.8441C19.7422 49.7795 19.4598 49.6806 19.1911 49.5564C19.1348 49.5302 19.0717 49.515 19.0131 49.4938C18.8949 49.4504 18.764 49.4232 18.6618 49.3596C18.1153 49.0204 17.5056 48.7661 16.9843 48.3926C16.8431 48.2917 16.6743 48.218 16.5354 48.1141C16.2013 47.8617 15.8339 47.6498 15.4814 47.4217C15.3218 47.3187 15.2621 47.1935 15.2701 47.028C15.2747 46.9311 15.2701 46.8342 15.2701 46.7373C15.2701 43.2198 15.2701 39.7032 15.2701 36.1857C15.2701 36.0807 15.2678 35.9757 15.2644 35.8708C15.2598 35.7628 15.2035 35.6881 15.0818 35.6548C14.8981 35.6043 14.7132 35.5569 14.533 35.4993C14.2482 35.4095 13.9681 35.3086 13.6833 35.2218C13.5731 35.1884 13.4526 35.1733 13.3355 35.1632C13.2172 35.1531 13.0966 35.1662 12.9772 35.1561C12.3721 35.1087 11.8095 35.249 11.2768 35.4741C10.806 35.6729 10.3548 35.9071 9.89669 36.1292C9.73251 36.2089 9.63951 36.333 9.64525 36.5046C9.65443 36.761 9.61539 37.0194 9.71758 37.2717C9.74973 37.3525 9.73825 37.4473 9.74054 37.5352C9.74628 37.955 9.74628 38.3739 9.75662 38.7938C9.76006 38.921 9.79451 39.0482 9.81288 39.1753C9.8278 39.2793 9.84847 39.3823 9.84962 39.4862C9.85766 40.1635 9.86225 40.8418 9.86684 41.519C9.86799 41.6644 9.87488 41.8077 9.9254 41.949C9.95525 42.0318 9.95869 42.1236 9.95869 42.2114C9.96214 42.6313 9.95984 43.0502 9.95869 43.4701C9.95869 43.5347 9.96673 43.6033 9.94377 43.6619C9.83354 43.9445 9.86914 44.2362 9.85766 44.5248C9.84732 44.7893 9.88177 45.0578 9.76695 45.3141C9.75662 45.3364 9.75432 45.3626 9.75662 45.3858C9.78532 45.6886 9.68543 45.9763 9.62343 46.268C9.57176 46.5122 9.5178 46.7595 9.41906 46.9907C9.24454 47.3984 9.03098 47.7911 8.65093 48.0908C8.43852 48.2594 8.18822 48.3502 7.90692 48.3694C7.65892 48.3866 7.41895 48.3381 7.17439 48.2988C6.90228 48.2544 6.6405 48.1918 6.38101 48.113C6.04919 48.0131 5.75756 47.8446 5.45444 47.6952C5.09162 47.5165 4.79999 47.2551 4.48194 47.026C4.42568 46.9856 4.38205 46.9321 4.33498 46.8827C4.28905 46.8322 4.25461 46.7737 4.20294 46.7282C3.81486 46.383 3.568 45.9601 3.34067 45.5271C3.19829 45.2556 3.11907 44.971 3.08463 44.6692C3.05477 44.4138 3.02148 44.1665 3.08577 43.9102C3.11907 43.7789 3.0984 43.6366 3.1007 43.5004C3.103 43.3631 3.11792 43.2299 3.165 43.0956C3.20174 42.9906 3.19944 42.8736 3.20518 42.7605C3.21896 42.5122 3.20518 42.2639 3.2913 42.0187C3.33837 41.8844 3.31541 41.731 3.32115 41.5856C3.32689 41.4403 3.33493 41.299 3.38659 41.1567C3.42448 41.0517 3.42104 40.9336 3.42678 40.8216C3.43826 40.5803 3.42908 40.3411 3.51174 40.1029C3.55652 39.9757 3.53586 39.8314 3.54045 39.6941C3.54734 39.5094 3.55078 39.3267 3.61393 39.1451C3.65871 39.0179 3.64378 38.8735 3.64952 38.7373C3.65641 38.5677 3.65756 38.4012 3.72301 38.2367C3.78386 38.0842 3.73334 37.947 3.63001 37.8057C3.38889 37.4766 3.06855 37.2112 2.77118 36.9275C2.36702 36.542 1.93416 36.1806 1.52771 35.7971C1.24641 35.5316 0.97889 35.2551 0.725146 34.9694C0.39677 34.597 0.139581 34.1892 0.0282092 33.7209C0.0155794 33.6664 0.00983854 33.6088 0.00639405 33.5533C-0.0142729 33.1324 0.013283 32.7156 0.116618 32.3027C0.175174 32.0696 0.303769 31.8647 0.446142 31.6679C0.634441 31.4075 0.869815 31.1824 1.17063 31.0158C1.55871 30.8008 1.94679 30.5869 2.32799 30.3628C2.61732 30.1932 2.89518 30.0105 3.17878 29.8339C3.23159 29.8016 3.28556 29.7723 3.33722 29.738C3.40267 29.6946 3.47615 29.6552 3.52667 29.5997C3.81601 29.2858 4.08353 28.9598 4.20179 28.5601C4.21557 28.5137 4.23164 28.4662 4.23509 28.4178C4.25805 28.1039 4.29594 27.791 4.29594 27.4771C4.30053 24.1695 4.29824 20.8629 4.29939 17.5553C4.29939 17.4503 4.29709 17.3453 4.30972 17.2414C4.3235 17.1283 4.37976 17.0849 4.5072 17.0799C4.57035 17.0768 4.63695 17.0809 4.6978 17.094C4.96417 17.1515 5.23399 17.201 5.49348 17.2777C5.84941 17.3827 6.20419 17.4937 6.54405 17.632C7.06072 17.8419 7.53147 18.1165 7.97811 18.4334C8.30074 18.6625 8.60271 18.9078 8.88631 19.1702C9.16991 19.4337 9.41561 19.7223 9.62802 20.0362C9.85421 20.3723 9.99888 20.7357 10.1401 21.1011C10.1631 21.1616 10.1688 21.2273 10.1814 21.2898C10.209 21.4321 10.2388 21.5745 10.263 21.7168C10.3008 21.9409 10.302 22.1659 10.2572 22.39C10.2285 22.5323 10.201 22.6757 10.1906 22.819C10.1723 23.0754 10.1952 23.3327 10.0999 23.5851C10.0574 23.6961 10.085 23.8253 10.0701 23.9454C10.054 24.0726 10.0276 24.1987 10.0046 24.3249C10 24.3491 9.98395 24.3724 9.9851 24.3946C10.0035 24.7438 9.86225 25.0769 9.84962 25.4231C9.84503 25.5503 9.80484 25.6764 9.78877 25.8036C9.76925 25.9469 9.75203 26.0913 9.74399 26.2356C9.73365 26.4203 9.74743 26.606 9.66936 26.7847C9.64065 26.8503 9.64525 26.928 9.6441 26.9997C9.64065 27.2177 9.63376 27.4357 9.6441 27.6527C9.64984 27.7799 9.68314 27.9061 9.70495 28.0332C9.71184 28.0726 9.73365 28.113 9.73136 28.1513C9.71299 28.3976 9.78877 28.6328 9.86569 28.8619C10.0815 29.5069 10.5247 29.9681 11.2894 30.1498C11.325 30.1579 11.364 30.1579 11.3962 30.171C11.689 30.2921 12.0013 30.2871 12.3147 30.2851C12.6913 30.282 13.0679 30.2831 13.4445 30.2841C13.6018 30.2841 13.7545 30.2689 13.8981 30.2033C13.9612 30.174 14.037 30.1619 14.1082 30.1488C14.4423 30.0842 14.727 29.9328 14.9567 29.7219C15.1564 29.5371 15.3516 29.3444 15.463 29.0961C15.6283 28.7277 15.7328 28.3471 15.8396 27.9636C15.9418 27.5952 15.9257 27.2288 15.9429 26.8604C15.9464 26.7958 15.9452 26.7302 15.9636 26.6686C16.0738 26.2941 16.0715 25.9217 15.9647 25.5462C15.9406 25.4614 15.9441 25.3706 15.9429 25.2818C15.9372 24.8296 15.9337 24.3784 15.9303 23.9262C15.9292 23.7809 15.9165 23.6386 15.8649 23.4973C15.8339 23.4155 15.8327 23.3226 15.8293 23.2348C15.8224 23.0087 15.8235 22.7826 15.8201 22.5576C15.8178 22.3476 15.8224 22.1387 15.7443 21.9348C15.7156 21.8611 15.7202 21.7753 15.719 21.6956C15.7167 21.1879 15.7133 20.6792 15.719 20.1715C15.7202 20.0443 15.7558 19.9171 15.7765 19.79C15.7879 19.7183 15.8166 19.6466 15.8155 19.576C15.8086 19.2166 15.959 18.8997 16.1439 18.5909C16.2989 18.3335 16.5434 18.2053 16.8729 18.1841C17.3632 18.1528 17.8167 18.2648 18.2565 18.4384C18.8122 18.6575 19.3208 18.9492 19.7927 19.2792C20.1211 19.5094 20.469 19.7223 20.7537 20.0009C20.8697 20.1139 21.0109 20.2068 21.1407 20.3088C21.1682 20.3299 21.1992 20.3491 21.2233 20.3734C21.5334 20.6913 21.8434 21.0102 22.1511 21.3292C22.1809 21.3595 22.1981 21.4009 22.2314 21.4271C22.4829 21.6259 22.6172 21.8934 22.7722 22.1458C22.9249 22.394 23.0386 22.6595 23.034 22.9502C23.034 22.9825 23.034 23.0168 23.0466 23.0461C23.1477 23.2792 23.1247 23.5225 23.1247 23.7637C23.1247 28.0292 23.1247 32.2967 23.1247 36.5642Z" fill="#411D10"/>
<path d="M46.8815 41.251C46.8815 42.1867 46.8827 43.1223 46.8804 44.058C46.8804 44.1872 46.8838 44.3184 46.8574 44.4435C46.7931 44.7544 46.7701 45.0663 46.7701 45.3822C46.7701 45.5013 46.7357 45.6204 46.7139 45.7395C46.7058 45.787 46.6783 45.8334 46.6783 45.8808C46.676 46.1483 46.6278 46.4097 46.5566 46.6681C46.5118 46.8326 46.4854 47.0012 46.4337 47.1627C46.2454 47.7481 46.0146 48.3133 45.5278 48.7716C45.3257 48.9623 45.103 49.1279 44.8538 49.2651C44.7218 49.3378 44.5783 49.3933 44.4152 49.3933C44.3693 49.3933 44.3222 49.3963 44.2786 49.4085C43.8205 49.5407 43.3497 49.4619 42.8847 49.4751C42.8135 49.4771 42.7424 49.4488 42.6712 49.4357C42.5908 49.4216 42.5081 49.3943 42.4289 49.3984C42.166 49.4115 41.9145 49.357 41.6757 49.2803C40.7595 48.9876 39.919 48.5959 39.3185 47.8834C39.0659 47.5846 38.8122 47.2889 38.6411 46.9487C38.4746 46.6176 38.3242 46.2805 38.183 45.9404C38.121 45.791 38.0773 45.6305 38.0578 45.4721C38.0188 45.1693 37.8867 44.8786 37.9109 44.5667C37.9223 44.4223 37.9017 44.278 37.8466 44.1377C37.8167 44.064 37.8144 43.9793 37.8144 43.8995C37.8121 43.408 37.8098 42.9154 37.8156 42.4239C37.8167 42.3209 37.8489 42.218 37.8661 42.115C37.8833 42.0121 37.9051 41.9081 37.912 41.8041C37.9235 41.6356 37.9315 41.469 37.9924 41.3035C38.0544 41.136 38.0877 40.9603 38.1244 40.7867C38.1899 40.4759 38.3242 40.1852 38.447 39.8904C38.5446 39.6563 38.6354 39.4181 38.7157 39.1789C38.8948 38.6429 38.981 38.0918 39.0533 37.5387C39.0671 37.4347 39.0648 37.3298 39.0648 37.2248C39.0659 33.0462 39.0636 28.8675 39.0694 24.6899C39.0694 24.3477 38.9741 24.0298 38.8064 23.7361C38.6732 23.5019 38.4849 23.293 38.2151 23.1436C37.951 22.9962 37.6732 22.8751 37.4011 22.7409C37.0738 22.5794 36.7478 22.4108 36.4446 22.2181C36.2012 22.0626 36.0646 21.8335 36.037 21.56C35.9957 21.136 36.1094 20.7485 36.3413 20.377C36.5859 19.9844 36.8867 19.6301 37.2575 19.3273C37.478 19.1477 37.734 19.0023 37.9625 18.8287C38.3759 18.5148 38.8638 18.3029 39.3311 18.0667C39.7261 17.8668 40.1624 17.7275 40.5815 17.566C41.0109 17.4005 41.4644 17.2925 41.9191 17.2047C42.2739 17.1361 42.6298 17.0614 43.003 17.0634C44.7471 17.0725 46.4923 17.0684 48.2363 17.0684C48.4384 17.0684 48.6405 17.0674 48.8334 17.134C48.8667 17.1462 48.9046 17.1492 48.9413 17.1542C49.5981 17.2299 50.2319 17.3823 50.8427 17.6064C51.1217 17.7094 51.3984 17.8164 51.6717 17.9304C51.7957 17.9819 51.9082 18.0535 52.0242 18.1171C52.0942 18.1555 52.1596 18.2009 52.2308 18.2362C52.7555 18.4886 53.2378 18.7924 53.6706 19.1547C53.976 19.4101 54.2975 19.6533 54.5869 19.9218C54.8257 20.1429 55.0381 20.3871 55.2436 20.6334C55.5146 20.9584 55.7695 21.2935 56.0232 21.6286C56.1093 21.7416 56.1713 21.8698 56.2471 21.9889C56.3539 22.1575 56.4653 22.325 56.5732 22.4936C56.6042 22.5431 56.6375 22.5915 56.6605 22.644C56.8304 23.0427 57.0497 23.4252 57.1817 23.838C57.2736 24.1237 57.385 24.4053 57.4699 24.6929C57.5365 24.918 57.5641 25.1512 57.6284 25.3773C57.7007 25.6286 57.7478 25.8809 57.7443 26.1403C57.9062 26.5814 57.8236 27.0356 57.8442 27.4847C57.8523 27.6695 57.8419 27.8562 57.8419 28.0409C57.8419 28.1862 57.8385 28.3316 57.7742 28.4688C57.757 28.5052 57.7432 28.5476 57.7466 28.5869C57.7696 28.8736 57.6743 29.1461 57.6054 29.4196C57.5262 29.7325 57.4757 30.0525 57.3448 30.3553C57.2805 30.5047 57.2541 30.6672 57.1978 30.8196C57.0267 31.2778 56.866 31.7401 56.6708 32.1913C56.5055 32.5738 56.2965 32.9432 56.1093 33.3187C55.8843 33.7688 55.6237 34.2019 55.3504 34.6318C55.0404 35.1183 54.7005 35.5867 54.3389 36.0419C53.9818 36.491 53.5616 36.8978 53.123 37.2874C53.0782 37.3278 53.0277 37.3631 52.984 37.4045C52.5845 37.787 52.0793 38.0272 51.5569 38.2493C51.2756 38.3684 50.9897 38.4188 50.6819 38.4118C50.3053 38.4027 49.9287 38.4037 49.5533 38.4007C49.4327 38.3997 49.3225 38.3714 49.2088 38.3331C48.9275 38.2372 48.6371 38.1605 48.35 38.0757C48.1227 38.0091 47.8942 37.9576 47.6508 37.9616C47.5796 37.9626 47.5073 37.9394 47.4361 37.9253C47.3821 37.9152 47.3304 37.897 47.2765 37.89C46.9515 37.8526 46.8827 37.9273 46.8838 38.1766C46.8861 38.5723 46.8838 38.9669 46.8838 39.3626C46.8815 39.9924 46.8815 40.6222 46.8815 41.251ZM47.4854 27.192C47.4854 28.0702 47.4854 28.9493 47.4854 29.8274C47.4854 29.9082 47.4843 29.9889 47.4935 30.0686C47.505 30.1665 47.575 30.2029 47.6634 30.1474C47.8127 30.0545 47.9619 29.9586 48.0928 29.8466C48.5854 29.4227 49.0033 28.9432 49.404 28.4537C49.7588 28.0207 50.0367 27.5473 50.2893 27.0639C50.5155 26.6309 50.6624 26.1787 50.6486 25.6891C50.6418 25.4186 50.5935 25.1562 50.5005 24.9079C50.4098 24.6677 50.2709 24.4265 49.9655 24.3245C49.7267 24.2448 49.4878 24.164 49.2226 24.1671C49.0871 24.1691 48.9471 24.156 48.815 24.1277C48.4602 24.053 48.1043 24.0803 47.7484 24.0954C47.5899 24.1025 47.5119 24.1923 47.4923 24.3377C47.482 24.4174 47.4843 24.4981 47.4843 24.5789C47.4854 25.4509 47.4854 26.322 47.4854 27.192Z" fill="#411D10"/>
<path d="M34.0506 35.4174C34.0506 39.9503 34.0506 44.4833 34.0506 49.0162C34.0506 49.0889 34.046 49.1615 34.0518 49.2342C34.0655 49.4199 34.0242 49.5834 33.8646 49.7207C33.7946 49.7813 33.7555 49.8691 33.6958 49.9407C33.6292 50.0205 33.5845 50.0275 33.488 49.97C33.2607 49.8348 33.031 49.7005 32.8129 49.5542C32.2009 49.1444 31.5947 48.7275 30.9839 48.3167C30.5476 48.023 30.1078 47.7323 29.6658 47.4447C29.3718 47.2529 29.0699 47.0712 28.7748 46.8804C28.598 46.7664 28.4303 46.6422 28.2558 46.5251C27.8402 46.2466 27.4165 45.9781 27.0089 45.6914C26.7081 45.4805 26.4027 45.2766 26.0858 45.0848C25.9423 44.998 25.8929 44.8799 25.9113 44.7285C25.9779 44.1754 26.0467 43.6233 26.1019 43.0692C26.1524 42.5554 26.1868 42.0407 26.2293 41.5269C26.2373 41.431 26.2592 41.3351 26.2683 41.2393C26.2936 40.9748 26.312 40.7094 26.3384 40.4439C26.3602 40.2269 26.3901 40.0109 26.4165 39.7949C26.4256 39.7152 26.4371 39.6344 26.444 39.5547C26.475 39.2337 26.5037 38.9127 26.5336 38.5918C26.5405 38.511 26.5473 38.4313 26.5554 38.3505C26.5783 38.1507 26.6036 37.9508 26.6243 37.751C26.6415 37.5824 26.6518 37.4139 26.6691 37.2453C26.6886 37.0455 26.7127 36.8446 26.7334 36.6448C26.7494 36.4843 26.7724 36.3238 26.7758 36.1633C26.7804 35.9453 26.7999 35.7303 26.8424 35.5143C26.8769 35.3407 26.8826 35.162 26.8861 34.9854C26.8918 34.7593 26.9044 34.5363 26.9595 34.3132C26.9963 34.1658 26.994 34.0094 26.9974 33.856C27.002 33.6379 27.0147 33.423 27.0686 33.208C27.1054 33.0606 27.1054 32.9042 27.1077 32.7517C27.1111 32.5257 27.1272 32.3026 27.1823 32.0795C27.219 31.9322 27.2167 31.7757 27.2179 31.6223C27.2213 31.4043 27.2385 31.1893 27.2891 30.9743C27.3258 30.8189 27.3247 30.6543 27.327 30.4929C27.3304 30.2829 27.3419 30.075 27.3981 29.8691C27.4291 29.753 27.4337 29.6299 27.436 29.5087C27.4418 29.105 27.4418 28.7023 27.4418 28.2986C27.4418 24.7174 27.4418 21.1363 27.4418 17.5552C27.4418 17.4583 27.4383 17.3614 27.4475 17.2655C27.459 17.1333 27.5049 17.0818 27.6461 17.0778C27.9665 17.0697 28.288 17.0525 28.6072 17.1091C28.7599 17.1363 28.9149 17.1504 29.0687 17.1696C29.1227 17.1767 29.1789 17.1767 29.2329 17.1868C29.5544 17.2504 29.8793 17.2998 30.1939 17.3836C30.5269 17.4714 30.8518 17.5834 31.1733 17.7005C31.7956 17.9266 32.3008 18.296 32.7497 18.729C32.7681 18.7472 32.7853 18.7664 32.806 18.7825C33.3066 19.1822 33.5603 19.7101 33.7751 20.2521C33.8612 20.4691 33.9392 20.6972 33.9415 20.9344C33.9415 20.9748 33.9461 21.0162 33.9599 21.0535C34.0609 21.3362 34.0483 21.6268 34.0483 21.9175C34.0506 26.4161 34.0506 30.9168 34.0506 35.4174Z" fill="#411D10"/>
<path d="M37.7292 13.5189C37.7499 13.8459 37.5995 14.1336 37.371 14.3859C37.1942 14.5807 37.0518 14.8007 36.8279 14.9602C36.5076 15.1873 36.2125 15.4397 35.8887 15.6647C35.3996 16.0059 34.8554 16.2744 34.3559 16.6024C34.2032 16.7023 34.0241 16.773 33.8542 16.8517C33.4489 17.0395 33.0493 17.2383 32.613 17.3695C32.5786 17.3806 32.5441 17.3917 32.5085 17.3988C32.3535 17.428 32.2869 17.3968 32.2468 17.2575C32.1216 16.8194 31.8679 16.4359 31.5739 16.0765C31.3879 15.8494 31.1549 15.6486 30.8862 15.4891C30.4304 15.2186 29.9631 14.9632 29.5187 14.6806C29.2983 14.5403 29.0997 14.3667 28.9182 14.1871C28.5635 13.8368 28.3453 13.4159 28.2443 12.9607C28.1605 12.5842 28.0456 12.2057 28.1042 11.8131C28.1042 11.805 28.1053 11.797 28.1042 11.7889C28.0479 11.2741 28.2443 10.8088 28.4521 10.3415C28.7403 9.69451 29.11 9.08285 29.4418 8.45505C29.5417 8.2663 29.676 8.09169 29.7908 7.90799C30.0159 7.54765 30.2329 7.18328 30.4614 6.82497C30.6899 6.46665 30.9287 6.11439 31.1629 5.75911C31.3971 5.40382 31.6233 5.04349 31.8679 4.69325C32.1411 4.30264 32.4305 3.9201 32.7152 3.53554C32.7336 3.51031 32.7669 3.49315 32.7933 3.47296C32.8071 3.50728 32.8266 3.5416 32.8335 3.57692C32.861 3.71116 32.8851 3.84541 32.9104 3.97965C32.9161 4.01195 32.9311 4.04425 32.9288 4.07453C32.907 4.35411 33.031 4.61351 33.0677 4.88502C33.0803 4.97889 33.1297 5.06872 33.1596 5.16259C33.2583 5.48053 33.3754 5.79444 33.5281 6.09623C33.7095 6.45757 33.9139 6.80882 34.178 7.1308C34.2962 7.27412 34.3973 7.42855 34.5167 7.57188C34.7325 7.83128 34.9461 8.09168 35.1998 8.32585C35.2492 8.37127 35.2848 8.42981 35.3273 8.4823C35.4008 8.57415 35.472 8.66802 35.55 8.75785C35.8405 9.08891 36.1505 9.40685 36.3985 9.76617C36.5742 10.0205 36.7567 10.2729 36.9094 10.5383C37.1115 10.8906 37.2803 11.258 37.4009 11.6385C37.4835 11.9019 37.5605 12.1684 37.6052 12.4379C37.6649 12.7962 37.7074 13.1575 37.7292 13.5189Z" fill="#FF0000"/>
</svg>
